<?xml version="1.0" encoding="utf-8"?>
<!-- Generator: Adobe Illustrator 19.0.0, SVG Export Plug-In . SVG Version: 6.00 Build 0)  -->
<svg version="1.1" id="Capa_1" xmlns="http://www.w3.org/2000/svg" xmlns:xlink="http://www.w3.org/1999/xlink" x="0px" y="0px"
	 viewBox="-280 372 50 50" style="enable-background:new -280 372 50 50;" xml:space="preserve">
<style type="text/css">
	.st0{fill:#4E3F1C;}
	.st1{fill:#382E14;}
	.st2{fill:#26D9DD;}
</style>
<rect x="-280" y="372" class="st0" width="50" height="50"/>
<path class="st1" d="M-280,422"/>
<polygon class="st1" points="-230,372 -280,422 -280,372 "/>
<path class="st2" d="M-255.1,385.6c1.5-3.7,5.1-6.2,9.2-6.2c5.5,0,9.5,4.7,10,10.3c0,0,0.3,1.4-0.3,3.9c-0.8,3.4-2.7,6.5-5.3,8.8
	l-13.6,12.1l-13.3-12.1c-2.6-2.3-4.5-5.4-5.3-8.8c-0.6-2.5-0.3-3.9-0.3-3.9c0.5-5.6,4.5-10.3,10-10.3
	C-259.9,379.4-256.7,382-255.1,385.6z"/>
</svg>
